<svg width="58" height="58" viewBox="0 0 58 58" fill="none" xmlns="http://www.w3.org/2000/svg">
<path d="M38.0481 23.3798L35.5251 21.9501L27.7531 35.6497L30.2761 37.0794L38.0481 23.3798Z" fill="url(#paint0_linear_2_2)"/>
<path d="M14.0854 47.618L20.3001 50.75L27.2194 48.0298L34.8001 50.75L40.9713 47.8239L44.2251 49.8771C44.186 46.967 43.386 44.1177 41.9045 41.6126C40.423 39.1075 38.3116 37.0337 35.7803 35.5975C31.9302 33.4172 27.3723 32.8534 23.1071 34.03C18.8418 35.2065 15.2175 38.0273 13.0298 41.8731C11.5059 44.5359 10.7631 47.5743 10.8867 50.6398L14.0854 47.589V47.618Z" fill="url(#paint1_linear_2_2)"/>
<path d="M41.1916 42.7605C40.2404 42.7605 39.4226 43.3695 39.1268 44.2598C37.5057 49.1985 31.2098 49.1231 29.6061 44.5092C29.4577 44.0816 29.1795 43.711 28.8104 43.449C28.4414 43.187 27.9997 43.0467 27.5471 43.0476C27.0979 43.0478 26.6601 43.189 26.2954 43.4512C25.9307 43.7134 25.6575 44.0835 25.5142 44.5092V44.5121C23.9337 49.1231 17.6378 49.2304 15.9906 44.3178C15.8437 43.8731 15.5552 43.4886 15.1693 43.2231C14.7834 42.9577 14.3212 42.8257 13.8533 42.8475C12.8499 42.8533 12.0698 43.6131 11.8233 44.4628L11.8175 44.4918C11.3709 46.3333 10.5589 47.2468 9.68603 47.7659C8.75803 48.3314 7.47333 48.5808 5.98273 48.6069C5.41148 48.61 4.86462 48.8388 4.46149 49.2436C4.05836 49.6484 3.83169 50.1961 3.83093 50.7674C3.83093 51.9419 4.81693 52.925 5.98853 52.925C7.89673 52.925 10.0485 52.6002 11.9248 51.475C12.7716 50.9685 13.5179 50.3102 14.1636 49.5001C17.8263 53.273 24.0236 53.2411 27.579 49.3754C31.2098 53.302 37.5898 53.2179 41.1916 49.1985C42.1922 50.3276 43.4196 51.233 44.7938 51.8556C46.168 52.4782 47.658 52.8041 49.1666 52.8119C49.7384 52.8104 50.2863 52.5826 50.6906 52.1783C51.0949 51.774 51.3227 51.2261 51.3242 50.6543C51.3204 50.0825 51.0916 49.5351 50.6872 49.1308C50.2829 48.7264 49.7356 48.4976 49.1637 48.4938C46.6175 48.4938 44.1003 46.8408 43.2593 44.2627C43.1175 43.8266 42.8414 43.4465 42.4706 43.1767C42.0997 42.9069 41.6502 42.7612 41.1916 42.7605Z" fill="url(#paint2_linear_2_2)"/>
<path d="M47.8617 30.0788C48.195 30.2676 48.5894 30.3168 48.9589 30.2158C49.3284 30.1147 49.6429 29.8716 49.8337 29.5394L50.3499 28.6404C54.4505 21.4194 52.0696 12.3279 44.8167 8.20121C37.5638 4.07451 28.3331 6.59461 24.2325 13.8185L23.725 14.7059C23.6298 14.8716 23.5683 15.0545 23.5441 15.2441C23.5198 15.4336 23.5333 15.6261 23.5837 15.8105C23.6341 15.9948 23.7204 16.1674 23.8377 16.3182C23.9551 16.4691 24.101 16.5953 24.2673 16.6895L47.8617 30.0788Z" fill="url(#paint3_linear_2_2)"/>
<path d="M45.4112 8.57819C42.0385 9.67439 35.5193 14.2767 31.8914 21.0424L41.676 26.5814C45.6113 19.9926 46.2029 12.035 45.4112 8.57819Z" fill="url(#paint4_linear_2_2)"/>
<defs>
<linearGradient id="paint0_linear_2_2" x1="29.844" y1="33.2543" x2="39.9099" y2="21.7529" gradientUnits="userSpaceOnUse">
<stop stop-color="#CD3E1D"/>
<stop offset="1" stop-color="#592A00"/>
</linearGradient>
<linearGradient id="paint1_linear_2_2" x1="27.5501" y1="48.2705" x2="27.5501" y2="33.4254" gradientUnits="userSpaceOnUse">
<stop stop-color="#FFC7A3"/>
<stop offset="1" stop-color="#FFA43D"/>
</linearGradient>
<linearGradient id="paint2_linear_2_2" x1="27.6022" y1="50.75" x2="27.6022" y2="43.5" gradientUnits="userSpaceOnUse">
<stop offset="0.061" stop-color="#0FAFFF"/>
<stop offset="1" stop-color="#0078D4"/>
</linearGradient>
<linearGradient id="paint3_linear_2_2" x1="49.3465" y1="34.8058" x2="27.8459" y2="6.13641" gradientUnits="userSpaceOnUse">
<stop stop-color="#AA1D2D"/>
<stop offset="1" stop-color="#FB6F7B"/>
</linearGradient>
<linearGradient id="paint4_linear_2_2" x1="45.1183" y1="19.5228" x2="33.0108" y2="15.4889" gradientUnits="userSpaceOnUse">
<stop stop-color="#FECBE6"/>
<stop offset="1" stop-color="#FDAFD9"/>
</linearGradient>
</defs>
</svg>
