<svg width="412" height="412" viewBox="0 0 412 412" fill="none" xmlns="http://www.w3.org/2000/svg">
<path d="M362.753 190.582C362.753 190.582 375.435 183.469 378.622 181.666C381.808 179.864 393.428 172.589 397.644 178.962C400.123 182.696 395.391 193.254 387.827 204.262C380.939 214.337 364.91 235.033 364.008 239.121C363.107 243.209 367.581 259.592 368.933 265.933C370.285 272.274 374.534 287.531 372.699 293.421C370.864 299.312 361.659 315.47 338.098 315.18C319.364 314.955 313.925 309.451 313.313 306.103C312.862 303.689 311.511 295.674 311.511 295.674C311.511 295.674 296.093 305.202 288.851 308.807C281.608 312.412 262.103 322.39 262.103 322.39C262.103 322.39 265.869 339.61 266.48 346.563C267.092 353.515 269.248 363.461 265.579 370.124C262.264 376.175 251.899 386.282 227.501 386.121C208.446 385.992 203.65 380.07 200.625 376.465C197.599 372.828 196.987 355.608 196.987 352.003C196.987 348.398 196.376 335.683 196.376 335.683C196.376 335.683 170.562 334.396 154.983 333.269C140.885 332.239 122.28 330.083 122.28 330.083C122.28 330.083 122.956 337.582 123.632 342.99C124.244 347.818 124.372 357.925 119.319 362.85C112.527 369.48 94.9853 369.963 85.3291 369.03C75.6728 368.128 62.2184 363.139 58.2916 354.384C54.3647 345.629 59.5147 334.138 61.6069 327.508C63.4737 321.682 66.7569 313.313 65.5338 310.899C64.3106 308.485 52.53 305.459 35.6316 288.529C18.7009 271.598 -3.41188 212.824 46.1891 171.913C96.0475 130.842 187.202 175.454 192.031 178.48C196.987 181.57 362.753 190.582 362.753 190.582Z" fill="#47CFC8"/>
<path d="M213.242 81.37C168.405 83.3656 134.769 105.575 118.064 129.844C108.086 144.329 103.097 154.758 103.097 154.758C103.097 154.758 118.579 155.208 132.548 162.676C148.642 171.27 167.311 180.572 179.574 221.032C188.812 251.61 192.385 280.675 216.397 287.08C243.595 294.323 307.037 290.718 337.389 261.266C367.742 231.814 373.633 209.605 365.94 180.604C358.247 151.603 323.549 99.9744 275.3 86.3591C254.474 80.4688 233.617 80.4688 213.242 81.37Z" fill="#2E3BC9"/>
<path d="M132.548 211.987C134.158 221.096 129.49 230.495 119.448 231.364C111.208 232.072 104.674 226.31 103.064 217.201C101.455 208.092 106.734 199.53 114.909 198.082C123.021 196.633 130.939 202.846 132.548 211.987ZM73.4519 212.792C73.6772 221.933 65.6625 231.106 55.7488 229.239C47.6053 227.694 42.9059 220.452 43.8072 211.375C44.7406 202.298 52.1438 195.603 60.3838 196.408C68.6238 197.213 73.2266 203.264 73.4519 212.792ZM99.0409 246.524C102.775 243.981 109.019 237.93 113.075 243.112C117.163 248.327 110.113 253.09 106.058 256.019C101.97 258.981 92.9253 266.223 86.3591 266.223C80.2434 266.223 70.9413 258.755 65.0509 253.766C60.255 249.711 58.0341 244.464 60.7378 241.31C63.4416 238.155 67.6259 239.314 71.1666 242.436C75.2544 246.073 83.1403 253.316 86.3591 253.316C89.5134 253.348 94.0519 249.936 99.0409 246.524Z" fill="black"/>
</svg>
