<svg width="58" height="57" viewBox="0 0 58 57" fill="none" xmlns="http://www.w3.org/2000/svg">
<path d="M29 30.4024C30.069 30.4024 30.9357 29.5507 30.9357 28.5C30.9357 27.4494 30.069 26.5977 29 26.5977C27.9309 26.5977 27.0642 27.4494 27.0642 28.5C27.0642 29.5507 27.9309 30.4024 29 30.4024Z" fill="black" stroke="black" stroke-width="0.5" stroke-miterlimit="10" stroke-linejoin="round"/>
<path d="M22.9261 14.1471L35.0658 42.9558M14.2825 34.4692L43.5805 22.5388M14.2986 22.515L43.5483 34.4217M34.9852 14.2183L22.9261 42.8213" stroke="black" stroke-width="0.5" stroke-linejoin="round"/>
<path d="M28.7422 30.0834C29.632 30.0834 30.3533 29.3745 30.3533 28.5C30.3533 27.6256 29.632 26.9167 28.7422 26.9167C27.8524 26.9167 27.1311 27.6256 27.1311 28.5C27.1311 29.3745 27.8524 30.0834 28.7422 30.0834Z" fill="#FFA7C0"/>
<path d="M29 49.0834C40.5673 49.0834 49.9444 39.8679 49.9444 28.5C49.9444 17.1322 40.5673 7.91669 29 7.91669C17.4327 7.91669 8.05554 17.1322 8.05554 28.5C8.05554 39.8679 17.4327 49.0834 29 49.0834Z" fill="#E27022"/>
<path d="M29 44.0404C37.7333 44.0404 44.8131 37.0827 44.8131 28.5C44.8131 19.9173 37.7333 12.9596 29 12.9596C20.2667 12.9596 13.187 19.9173 13.187 28.5C13.187 37.0827 20.2667 44.0404 29 44.0404Z" fill="#F1B31C"/>
<path d="M22.9261 14.1471L35.0658 42.9558M34.9852 14.2183L22.9261 42.8213M14.2825 34.4692L43.5805 22.5388M14.2986 22.515L43.5483 34.4217" stroke="#E27022" stroke-width="0.5" stroke-linejoin="round"/>
<path d="M29 30.4023C30.0691 30.4023 30.9358 29.5506 30.9358 28.5C30.9358 27.4493 30.0691 26.5976 29 26.5976C27.9309 26.5976 27.0643 27.4493 27.0643 28.5C27.0643 29.5506 27.9309 30.4023 29 30.4023Z" fill="#E27022" stroke="#E27022" stroke-width="0.5" stroke-miterlimit="10" stroke-linejoin="round"/>
<path d="M49.9444 28.5C49.9444 33.9591 47.7378 39.1945 43.8099 43.0546C39.8821 46.9148 34.5548 49.0834 29 49.0834C23.4452 49.0834 18.1179 46.9148 14.19 43.0546C10.2622 39.1945 8.05554 33.9591 8.05554 28.5C8.05554 23.041 10.2622 17.8055 14.19 13.9454C18.1179 10.0853 23.4452 7.91669 29 7.91669C34.5548 7.91669 39.8821 10.0853 43.8099 13.9454C47.7378 17.8055 49.9444 23.041 49.9444 28.5Z" stroke="black" stroke-width="0.5" stroke-miterlimit="10"/>
<path d="M44.8131 28.5C44.8131 30.5408 44.404 32.5616 43.6094 34.4471C42.8147 36.3325 41.6499 38.0457 40.1815 39.4887C38.7131 40.9318 36.9699 42.0765 35.0514 42.8575C33.1329 43.6385 31.0766 44.0404 29 44.0404C24.8061 44.0404 20.784 42.4031 17.8185 39.4887C14.853 36.5744 13.187 32.6216 13.187 28.5C13.187 24.3784 14.853 20.4257 17.8185 17.5113C20.784 14.5969 24.8061 12.9596 29 12.9596C31.0766 12.9596 33.1329 13.3616 35.0514 14.1425C36.9699 14.9235 38.7131 16.0682 40.1815 17.5113C41.6499 18.9543 42.8147 20.6675 43.6094 22.553C44.404 24.4384 44.8131 26.4592 44.8131 28.5Z" stroke="black" stroke-width="0.5" stroke-miterlimit="10"/>
</svg>
